<?xml version="1.0" standalone="no"?>
<svg xmlns:xlink="http://www.w3.org/1999/xlink" id="wave" style="transform:rotate(0deg); transition: 0.3s" viewBox="0 0 1440 490" version="1.1" xmlns="http://www.w3.org/2000/svg"><defs><linearGradient id="sw-gradient-0" x1="0" x2="0" y1="1" y2="0"><stop stop-color="rgba(99, 172, 68, 1)" offset="0%"/><stop stop-color="rgba(99, 172, 68, 1)" offset="100%"/></linearGradient></defs><path style="transform:translate(0, 0px); opacity:1" fill="url(#sw-gradient-0)" d="M0,441L120,432.8C240,425,480,408,720,400.2C960,392,1200,392,1440,326.7C1680,261,1920,131,2160,65.3C2400,0,2640,0,2880,73.5C3120,147,3360,294,3600,334.8C3840,376,4080,310,4320,285.8C4560,261,4800,278,5040,269.5C5280,261,5520,229,5760,212.3C6000,196,6240,196,6480,163.3C6720,131,6960,65,7200,57.2C7440,49,7680,98,7920,122.5C8160,147,8400,147,8640,187.8C8880,229,9120,310,9360,294C9600,278,9840,163,10080,163.3C10320,163,10560,278,10800,310.3C11040,343,11280,294,11520,253.2C11760,212,12000,180,12240,163.3C12480,147,12720,147,12960,179.7C13200,212,13440,278,13680,318.5C13920,359,14160,376,14400,359.3C14640,343,14880,294,15120,277.7C15360,261,15600,278,15840,277.7C16080,278,16320,261,16560,285.8C16800,310,17040,376,17160,408.3L17280,441L17280,490L17160,490C17040,490,16800,490,16560,490C16320,490,16080,490,15840,490C15600,490,15360,490,15120,490C14880,490,14640,490,14400,490C14160,490,13920,490,13680,490C13440,490,13200,490,12960,490C12720,490,12480,490,12240,490C12000,490,11760,490,11520,490C11280,490,11040,490,10800,490C10560,490,10320,490,10080,490C9840,490,9600,490,9360,490C9120,490,8880,490,8640,490C8400,490,8160,490,7920,490C7680,490,7440,490,7200,490C6960,490,6720,490,6480,490C6240,490,6000,490,5760,490C5520,490,5280,490,5040,490C4800,490,4560,490,4320,490C4080,490,3840,490,3600,490C3360,490,3120,490,2880,490C2640,490,2400,490,2160,490C1920,490,1680,490,1440,490C1200,490,960,490,720,490C480,490,240,490,120,490L0,490Z"/><defs><linearGradient id="sw-gradient-1" x1="0" x2="0" y1="1" y2="0"><stop stop-color="rgba(99, 172, 68, 1)" offset="0%"/><stop stop-color="rgba(79.437, 192.46, 39.902, 1)" offset="100%"/></linearGradient></defs><path style="transform:translate(0, 50px); opacity:0.9" fill="url(#sw-gradient-1)" d="M0,441L120,441C240,441,480,441,720,375.7C960,310,1200,180,1440,114.3C1680,49,1920,49,2160,73.5C2400,98,2640,147,2880,212.3C3120,278,3360,359,3600,326.7C3840,294,4080,147,4320,89.8C4560,33,4800,65,5040,138.8C5280,212,5520,327,5760,334.8C6000,343,6240,245,6480,220.5C6720,196,6960,245,7200,228.7C7440,212,7680,131,7920,155.2C8160,180,8400,310,8640,359.3C8880,408,9120,376,9360,318.5C9600,261,9840,180,10080,155.2C10320,131,10560,163,10800,163.3C11040,163,11280,131,11520,163.3C11760,196,12000,294,12240,334.8C12480,376,12720,359,12960,310.3C13200,261,13440,180,13680,138.8C13920,98,14160,98,14400,106.2C14640,114,14880,131,15120,171.5C15360,212,15600,278,15840,269.5C16080,261,16320,180,16560,187.8C16800,196,17040,294,17160,343L17280,392L17280,490L17160,490C17040,490,16800,490,16560,490C16320,490,16080,490,15840,490C15600,490,15360,490,15120,490C14880,490,14640,490,14400,490C14160,490,13920,490,13680,490C13440,490,13200,490,12960,490C12720,490,12480,490,12240,490C12000,490,11760,490,11520,490C11280,490,11040,490,10800,490C10560,490,10320,490,10080,490C9840,490,9600,490,9360,490C9120,490,8880,490,8640,490C8400,490,8160,490,7920,490C7680,490,7440,490,7200,490C6960,490,6720,490,6480,490C6240,490,6000,490,5760,490C5520,490,5280,490,5040,490C4800,490,4560,490,4320,490C4080,490,3840,490,3600,490C3360,490,3120,490,2880,490C2640,490,2400,490,2160,490C1920,490,1680,490,1440,490C1200,490,960,490,720,490C480,490,240,490,120,490L0,490Z"/><defs><linearGradient id="sw-gradient-2" x1="0" x2="0" y1="1" y2="0"><stop stop-color="rgba(99, 172, 68, 1)" offset="0%"/><stop stop-color="rgba(99, 172, 68, 1)" offset="100%"/></linearGradient></defs><path style="transform:translate(0, 100px); opacity:0.8" fill="url(#sw-gradient-2)" d="M0,98L120,122.5C240,147,480,196,720,220.5C960,245,1200,245,1440,212.3C1680,180,1920,114,2160,73.5C2400,33,2640,16,2880,57.2C3120,98,3360,196,3600,204.2C3840,212,4080,131,4320,98C4560,65,4800,82,5040,122.5C5280,163,5520,229,5760,261.3C6000,294,6240,294,6480,285.8C6720,278,6960,261,7200,228.7C7440,196,7680,147,7920,163.3C8160,180,8400,261,8640,285.8C8880,310,9120,278,9360,220.5C9600,163,9840,82,10080,57.2C10320,33,10560,65,10800,114.3C11040,163,11280,229,11520,253.2C11760,278,12000,261,12240,253.2C12480,245,12720,245,12960,269.5C13200,294,13440,343,13680,375.7C13920,408,14160,425,14400,375.7C14640,327,14880,212,15120,155.2C15360,98,15600,98,15840,98C16080,98,16320,98,16560,155.2C16800,212,17040,327,17160,383.8L17280,441L17280,490L17160,490C17040,490,16800,490,16560,490C16320,490,16080,490,15840,490C15600,490,15360,490,15120,490C14880,490,14640,490,14400,490C14160,490,13920,490,13680,490C13440,490,13200,490,12960,490C12720,490,12480,490,12240,490C12000,490,11760,490,11520,490C11280,490,11040,490,10800,490C10560,490,10320,490,10080,490C9840,490,9600,490,9360,490C9120,490,8880,490,8640,490C8400,490,8160,490,7920,490C7680,490,7440,490,7200,490C6960,490,6720,490,6480,490C6240,490,6000,490,5760,490C5520,490,5280,490,5040,490C4800,490,4560,490,4320,490C4080,490,3840,490,3600,490C3360,490,3120,490,2880,490C2640,490,2400,490,2160,490C1920,490,1680,490,1440,490C1200,490,960,490,720,490C480,490,240,490,120,490L0,490Z"/></svg>